<?xml version="1.0" encoding="utf-8"?>
<!-- Generator: Adobe Illustrator 19.1.0, SVG Export Plug-In . SVG Version: 6.00 Build 0)  -->
<svg version="1.1" id="Layer_1" xmlns="http://www.w3.org/2000/svg" xmlns:xlink="http://www.w3.org/1999/xlink" x="0px" y="0px"
	 viewBox="0 0 144.6 18" style="enable-background:new 0 0 144.6 18;" xml:space="preserve">
<style type="text/css">
	.st0{fill:#FFFFFF;}
</style>
<g>
	<g>
		<g>
			<path class="st0" d="M26.5,16.5c0,0.4-0.1,0.8-0.4,1.1C25.7,17.9,25.4,18,25,18c-0.4,0-0.8-0.1-1.1-0.4c-0.3-0.3-0.4-0.6-0.4-1.1
				V9.7c0-0.9-0.1-1.3-0.2-1.3c-0.1,0-0.4,0.3-0.9,0.8l-6.9,7.8c-0.3,0.3-0.6,0.5-1,0.7c-0.4,0.2-0.8,0.2-1.3,0.2
				c-0.5,0-0.9-0.1-1.3-0.2c-0.4-0.2-0.7-0.4-1-0.7L4,9.2C3.6,8.7,3.3,8.4,3.2,8.4C3.1,8.4,3,8.8,3,9.7v6.8c0,0.4-0.1,0.8-0.4,1.1
				C2.3,17.9,1.9,18,1.5,18c-0.4,0-0.8-0.1-1.1-0.4C0.1,17.3,0,16.9,0,16.5V7.3c0-0.8,0.2-1.5,0.7-2.1c0.5-0.6,1.1-0.9,2-0.9
				c0.5,0,1,0.1,1.3,0.4C4.4,5,4.8,5.3,5.1,5.6l7.2,8.2c0.1,0.1,0.2,0.2,0.4,0.3c0.2,0.1,0.3,0.2,0.5,0.2c0.2,0,0.3-0.1,0.5-0.2
				c0.2-0.1,0.3-0.2,0.4-0.3l7.2-8.2h0c0.3-0.4,0.6-0.7,1.1-0.9c0.4-0.2,0.9-0.3,1.4-0.3c0.8,0,1.5,0.3,2,0.9
				c0.5,0.6,0.7,1.3,0.7,2.1V16.5z"/>
			<path class="st0" d="M29.6,5.8c0-0.4,0.1-0.8,0.4-1.1c0.3-0.3,0.6-0.4,1.1-0.4h22.2c0.4,0,0.8,0.1,1.1,0.4
				c0.3,0.3,0.4,0.6,0.4,1.1c0,0.4-0.1,0.8-0.4,1.1c-0.3,0.3-0.6,0.4-1.1,0.4H31.1c-0.4,0-0.8-0.1-1.1-0.4
				C29.8,6.6,29.6,6.2,29.6,5.8z M33.4,18c-0.5,0-0.9-0.1-1.4-0.3c-0.5-0.2-0.9-0.5-1.2-0.8c-0.4-0.4-0.6-0.8-0.9-1.3
				c-0.2-0.5-0.3-1.1-0.3-1.7v-2.8c0-0.6,0.2-0.9,0.5-1.1c0.3-0.2,0.8-0.3,1.5-0.3h21c0.4,0,0.8,0.1,1.1,0.4
				c0.3,0.3,0.4,0.6,0.4,1.1c0,0.4-0.1,0.8-0.4,1.1c-0.3,0.3-0.6,0.4-1.1,0.4h-20v1.5c0,0.2,0.1,0.4,0.3,0.5
				c0.2,0.2,0.4,0.2,0.7,0.2h19.8c0.4,0,0.8,0.1,1.1,0.4c0.3,0.3,0.4,0.6,0.4,1.1c0,0.4-0.1,0.8-0.4,1.1c-0.3,0.3-0.6,0.4-1.1,0.4
				H33.4z"/>
			<path class="st0" d="M79.9,13.8c0.6,0.4,1.2,0.9,1.8,1.3c0.2,0.2,0.4,0.4,0.6,0.6c0.2,0.2,0.3,0.5,0.3,0.8c0,0.4-0.1,0.8-0.4,1.1
				C81.8,17.9,81.4,18,81,18c-0.4,0-0.7-0.1-1.1-0.4c-0.9-0.6-1.7-1.2-2.6-1.8c-0.9-0.6-1.8-1.1-2.8-1.6c-1-0.5-2-0.8-3-1.1
				c-1-0.3-2.1-0.4-3.3-0.4H62c-0.3,0-0.5,0.2-0.7,0.4c-0.2,0.2-0.3,0.5-0.3,0.8v2.7c0,0.4-0.2,0.8-0.5,1.1
				c-0.3,0.3-0.7,0.4-1.1,0.4c-0.4,0-0.8-0.1-1.1-0.4c-0.3-0.3-0.4-0.6-0.4-1.1v-3c0-0.5,0.1-1,0.3-1.5c0.2-0.5,0.5-0.9,0.8-1.2
				c0.3-0.3,0.7-0.6,1.2-0.8c0.5-0.2,1-0.3,1.5-0.3h16.6c0.3,0,0.6-0.1,0.8-0.3c0.2-0.2,0.4-0.5,0.4-0.8c0-0.3-0.1-0.6-0.4-0.8
				c-0.2-0.2-0.5-0.3-0.8-0.3H59.5c-0.4,0-0.8-0.1-1.1-0.4C58.1,6.6,58,6.2,58,5.8c0-0.4,0.1-0.8,0.4-1.1c0.3-0.3,0.6-0.4,1.1-0.4
				h18.8c0.6,0,1.1,0.1,1.6,0.3c0.5,0.2,1,0.5,1.3,0.9c0.4,0.4,0.7,0.8,0.9,1.3c0.2,0.5,0.3,1,0.3,1.6c0,0.6-0.1,1.1-0.3,1.6
				c-0.2,0.5-0.5,0.9-0.9,1.3c-0.4,0.4-0.8,0.7-1.3,0.9c-0.5,0.2-1.1,0.3-1.6,0.3h-0.1C78.7,13,79.3,13.4,79.9,13.8z"/>
			<path class="st0" d="M85.7,5.8c0-0.4,0.1-0.8,0.4-1.1c0.3-0.3,0.6-0.4,1.1-0.4h22.2c0.4,0,0.8,0.1,1.1,0.4
				c0.3,0.3,0.4,0.6,0.4,1.1c0,0.4-0.1,0.8-0.4,1.1c-0.3,0.3-0.6,0.4-1.1,0.4H87.2c-0.4,0-0.8-0.1-1.1-0.4
				C85.8,6.6,85.7,6.2,85.7,5.8z M89.5,18c-0.5,0-0.9-0.1-1.4-0.3c-0.5-0.2-0.9-0.5-1.2-0.8c-0.4-0.4-0.6-0.8-0.9-1.3
				c-0.2-0.5-0.3-1.1-0.3-1.7v-2.8c0-0.6,0.2-0.9,0.5-1.1c0.3-0.2,0.8-0.3,1.5-0.3h21c0.4,0,0.8,0.1,1.1,0.4
				c0.3,0.3,0.4,0.6,0.4,1.1c0,0.4-0.1,0.8-0.4,1.1c-0.3,0.3-0.6,0.4-1.1,0.4h-20v1.5c0,0.2,0.1,0.4,0.3,0.5
				c0.2,0.2,0.4,0.2,0.7,0.2h19.8c0.4,0,0.8,0.1,1.1,0.4c0.3,0.3,0.4,0.6,0.4,1.1c0,0.4-0.1,0.8-0.4,1.1c-0.3,0.3-0.6,0.4-1.1,0.4
				H89.5z"/>
			<path class="st0" d="M138.8,11.2c0,0.8-0.1,1.6-0.4,2.4c-0.3,0.8-0.6,1.5-1.1,2.2c-0.5,0.7-1.1,1.2-1.8,1.6
				c-0.7,0.4-1.5,0.6-2.4,0.6h-14.3c-0.9,0-1.6-0.3-2.3-0.7c-0.7-0.4-1.2-1-1.7-1.6c-0.5-0.6-0.8-1.4-1.1-2.2
				c-0.3-0.8-0.4-1.6-0.4-2.4c0-0.8,0.1-1.6,0.4-2.4c0.3-0.8,0.6-1.5,1.1-2.2c0.5-0.7,1.1-1.2,1.8-1.6c0.7-0.4,1.5-0.6,2.4-0.6h14.3
				c0.9,0,1.6,0.3,2.3,0.7c0.7,0.4,1.2,1,1.7,1.6c0.5,0.6,0.8,1.4,1.1,2.2C138.7,9.6,138.8,10.4,138.8,11.2z M134.1,14.6
				c0.5-0.3,0.8-0.6,1.1-1c0.3-0.4,0.4-0.8,0.5-1.2c0.1-0.4,0.1-0.9,0.1-1.2c0-0.4,0-0.8-0.1-1.2c-0.1-0.4-0.3-0.9-0.5-1.2
				c-0.3-0.4-0.6-0.7-1.1-1c-0.5-0.3-1-0.4-1.8-0.4h-12.7c-0.7,0-1.3,0.1-1.8,0.4c-0.4,0.3-0.8,0.6-1.1,1c-0.3,0.4-0.4,0.8-0.5,1.2
				c-0.1,0.5-0.1,0.9-0.1,1.2c0,0.4,0,0.8,0.1,1.2c0.1,0.4,0.3,0.9,0.5,1.2c0.3,0.4,0.6,0.7,1.1,1c0.5,0.3,1,0.4,1.8,0.4h12.7
				C133.1,15,133.7,14.9,134.1,14.6z"/>
		</g>
		<g>
			<path class="st0" d="M141.8,0c0.5,0,0.9,0.1,1.4,0.4c0.4,0.2,0.8,0.6,1,1c0.2,0.4,0.4,0.9,0.4,1.4c0,0.5-0.1,0.9-0.4,1.4
				c-0.2,0.4-0.6,0.8-1,1c-0.4,0.2-0.9,0.4-1.4,0.4c-0.5,0-0.9-0.1-1.4-0.4c-0.4-0.2-0.8-0.6-1-1c-0.2-0.4-0.4-0.9-0.4-1.4
				c0-0.5,0.1-0.9,0.4-1.4c0.2-0.4,0.6-0.8,1-1C140.9,0.1,141.4,0,141.8,0z M141.8,0.5c-0.4,0-0.8,0.1-1.1,0.3
				c-0.4,0.2-0.7,0.5-0.9,0.8c-0.2,0.4-0.3,0.8-0.3,1.2c0,0.4,0.1,0.8,0.3,1.1c0.2,0.4,0.5,0.6,0.9,0.8c0.4,0.2,0.7,0.3,1.1,0.3
				c0.4,0,0.8-0.1,1.1-0.3c0.4-0.2,0.6-0.5,0.8-0.8c0.2-0.4,0.3-0.7,0.3-1.1c0-0.4-0.1-0.8-0.3-1.2c-0.2-0.4-0.5-0.7-0.9-0.8
				C142.6,0.6,142.2,0.5,141.8,0.5z M140.6,4.3v-3h1c0.3,0,0.6,0,0.8,0.1c0.2,0.1,0.3,0.1,0.4,0.3c0.1,0.1,0.1,0.3,0.1,0.4
				c0,0.2-0.1,0.4-0.2,0.6c-0.2,0.2-0.4,0.2-0.6,0.3c0.1,0,0.2,0.1,0.3,0.2c0.1,0.1,0.3,0.3,0.4,0.6l0.4,0.6h-0.6l-0.3-0.5
				c-0.2-0.4-0.4-0.6-0.5-0.7C141.7,3,141.5,3,141.4,3h-0.3v1.3H140.6z M141.1,2.6h0.6c0.3,0,0.5,0,0.6-0.1c0.1-0.1,0.2-0.2,0.2-0.3
				c0-0.1,0-0.2-0.1-0.2c0-0.1-0.1-0.1-0.2-0.2c-0.1,0-0.2-0.1-0.5-0.1h-0.5V2.6z"/>
		</g>
	</g>
</g>
</svg>
